<?xml version="1.0" encoding="UTF-8" standalone="no"?>
<!DOCTYPE svg PUBLIC "-//W3C//DTD SVG 1.1//EN"
 "http://www.w3.org/Graphics/SVG/1.1/DTD/svg11.dtd">
<!-- Generated by graphviz version 6.0.2 (0)
 -->
<!-- Title: G Pages: 1 -->
<svg width="730pt" height="253pt"
 viewBox="0.00 0.00 729.52 253.47" xmlns="http://www.w3.org/2000/svg" xmlns:xlink="http://www.w3.org/1999/xlink">
<g id="graph0" class="graph" transform="scale(1 1) rotate(0) translate(4 249.47)">
<title>G</title>
<g id="a_graph0"><a xlink:href="https://pub.uni-bielefeld.de/record/2564817" xlink:title="Objective Social Situation and Right&#45;Wing Populism">
<polygon fill="white" stroke="none" points="-4,4 -4,-249.47 725.52,-249.47 725.52,4 -4,4"/>
<text text-anchor="middle" x="360.76" y="-227.07" font-family="sans-serif" font-size="18.00">Objective Social Situation and Right&#45;Wing Populism</text>
</a>
</g>
<g id="clust1" class="cluster">
<title>cluster_0</title>
<g id="a_clust1"><a xlink:href="https://pub.uni-bielefeld.de/record/2564817" xlink:title="Desintegration\n(socio&#45;structural dimension)">
<polygon fill="none" stroke="#008891" points="0,-38.47 0,-128.47 211.59,-128.47 211.59,-38.47 0,-38.47"/>
<text text-anchor="middle" x="105.79" y="-113.27" font-family="sans-serif" font-size="14.00" fill="#008891">Desintegration</text>
<text text-anchor="middle" x="105.79" y="-98.27" font-family="sans-serif" font-size="14.00" fill="#008891">(socio&#45;structural dimension)</text>
</a>
</g>
</g>
<g id="clust2" class="cluster">
<title>cluster_1</title>
<g id="a_clust2"><a xlink:href="https://pub.uni-bielefeld.de/record/2564817" xlink:title="Desintegration\n(institutional dimension)">
<polygon fill="none" stroke="#008891" points="254.59,-29.47 254.59,-209.47 439.56,-209.47 439.56,-29.47 254.59,-29.47"/>
<text text-anchor="middle" x="347.07" y="-194.27" font-family="sans-serif" font-size="14.00" fill="#008891">Desintegration</text>
<text text-anchor="middle" x="347.07" y="-179.27" font-family="sans-serif" font-size="14.00" fill="#008891">(institutional dimension)</text>
</a>
</g>
</g>
<g id="clust3" class="cluster">
<title>cluster_2</title>
<g id="a_clust3"><a xlink:href="https://pub.uni-bielefeld.de/record/2564817" xlink:title="Endangering\ndemocratic attitudes">
<polygon fill="none" stroke="#008891" points="482.56,-19.47 482.56,-147.47 713.52,-147.47 713.52,-19.47 482.56,-19.47"/>
<text text-anchor="middle" x="598.04" y="-132.27" font-family="sans-serif" font-size="14.00" fill="#008891">Endangering</text>
<text text-anchor="middle" x="598.04" y="-117.27" font-family="sans-serif" font-size="14.00" fill="#008891">democratic attitudes</text>
</a>
</g>
</g>
<!-- Social situation -->
<g id="node1" class="node">
<title>Social situation</title>
<ellipse fill="#eeee00" stroke="#eeee00" cx="105.29" cy="-64.47" rx="79.09" ry="18"/>
<text text-anchor="middle" x="105.29" y="-60.77" font-family="sans-serif" font-size="14.00">Social situation</text>
</g>
<!-- Political\nalientation -->
<g id="node2" class="node">
<title>Political\nalientation</title>
<ellipse fill="#eeee00" stroke="#eeee00" cx="347.07" cy="-136.47" rx="62.87" ry="26.74"/>
<text text-anchor="middle" x="347.07" y="-140.27" font-family="sans-serif" font-size="14.00">Political</text>
<text text-anchor="middle" x="347.07" y="-125.27" font-family="sans-serif" font-size="14.00">alientation</text>
</g>
<!-- Social situation&#45;&gt;Political\nalientation -->
<g id="edge1" class="edge">
<title>Social situation&#45;&gt;Political\nalientation</title>
<path fill="none" stroke="black" d="M153.95,-78.78C191.68,-90.11 244.62,-106.01 285.37,-118.25"/>
<polygon fill="black" stroke="black" points="284.61,-121.67 295.19,-121.19 286.62,-114.97 284.61,-121.67"/>
<text text-anchor="middle" x="233.09" y="-108.27" font-family="sans-serif" font-size="14.00">.27</text>
</g>
<!-- Distrust of\npolitical elites -->
<g id="node3" class="node">
<title>Distrust of\npolitical elites</title>
<ellipse fill="#eeee00" stroke="#eeee00" cx="347.07" cy="-64.47" rx="78.48" ry="26.74"/>
<text text-anchor="middle" x="347.07" y="-68.27" font-family="sans-serif" font-size="14.00">Distrust of</text>
<text text-anchor="middle" x="347.07" y="-53.27" font-family="sans-serif" font-size="14.00">political elites</text>
</g>
<!-- Social situation&#45;&gt;Distrust of\npolitical elites -->
<g id="edge2" class="edge">
<title>Social situation&#45;&gt;Distrust of\npolitical elites</title>
<path fill="none" stroke="black" d="M184.81,-64.47C208.23,-64.47 234.06,-64.47 258.05,-64.47"/>
<polygon fill="black" stroke="black" points="258.2,-67.97 268.2,-64.47 258.2,-60.97 258.2,-67.97"/>
<text text-anchor="middle" x="233.09" y="-68.27" font-family="sans-serif" font-size="14.00">.26</text>
</g>
<!-- Right&#45;wing\npopulist orientation\n.42 -->
<g id="node4" class="node">
<title>Right&#45;wing\npopulist orientation\n.42</title>
<ellipse fill="pink" stroke="pink" cx="598.04" cy="-64.47" rx="107.46" ry="37.45"/>
<text text-anchor="middle" x="598.04" y="-75.77" font-family="sans-serif" font-size="14.00">Right&#45;wing</text>
<text text-anchor="middle" x="598.04" y="-60.77" font-family="sans-serif" font-size="14.00">populist orientation</text>
<text text-anchor="middle" x="598.04" y="-45.77" font-family="sans-serif" font-size="14.00">.42</text>
</g>
<!-- Social situation&#45;&gt;Right&#45;wing\npopulist orientation\n.42 -->
<g id="edge5" class="edge">
<title>Social situation&#45;&gt;Right&#45;wing\npopulist orientation\n.42</title>
<path fill="none" stroke="black" d="M140.11,-48.3C169.57,-35.16 213.84,-17.66 254.59,-10.47 335.55,3.81 358.47,3.04 439.56,-10.47 466.23,-14.92 494.44,-23.33 519.5,-32.21"/>
<polygon fill="black" stroke="black" points="518.35,-35.51 528.94,-35.63 520.73,-28.93 518.35,-35.51"/>
<text text-anchor="middle" x="347.07" y="-14.27" font-family="sans-serif" font-size="14.00">.28</text>
</g>
<!-- Political\nalientation&#45;&gt;Right&#45;wing\npopulist orientation\n.42 -->
<g id="edge4" class="edge">
<title>Political\nalientation&#45;&gt;Right&#45;wing\npopulist orientation\n.42</title>
<path fill="none" stroke="black" d="M399.66,-121.55C430,-112.78 469.25,-101.43 504.75,-91.16"/>
<polygon fill="black" stroke="black" points="506.02,-94.44 514.65,-88.3 504.07,-87.72 506.02,-94.44"/>
<text text-anchor="middle" x="461.06" y="-110.27" font-family="sans-serif" font-size="14.00">.35</text>
</g>
<!-- Distrust of\npolitical elites&#45;&gt;Right&#45;wing\npopulist orientation\n.42 -->
<g id="edge3" class="edge">
<title>Distrust of\npolitical elites&#45;&gt;Right&#45;wing\npopulist orientation\n.42</title>
<path fill="none" stroke="black" d="M425.83,-64.47C443.04,-64.47 461.65,-64.47 480.04,-64.47"/>
<polygon fill="black" stroke="black" points="480.23,-67.97 490.23,-64.47 480.23,-60.97 480.23,-67.97"/>
<text text-anchor="middle" x="461.06" y="-68.27" font-family="sans-serif" font-size="14.00">.24</text>
</g>
</g>
</svg>
